<svg xmlns="http://www.w3.org/2000/svg" xmlns:xlink="http://www.w3.org/1999/xlink" xmlns:serif="http://www.serif.com/" width="100%" height="100%" viewBox="0 0 10163 1022" xml:space="preserve" style="fill-rule:evenodd;clip-rule:evenodd;stroke-linejoin:round;stroke-miterlimit:2;">
    <g transform="matrix(5.55556,0,0,5.55556,-474.071,-1061.48)">
        <g transform="matrix(1,0,0,1,-61.5875,-434.7)">
            <g transform="matrix(1,0,0,1,145.987,808)">
                <g transform="matrix(233.333,0,0,233.333,0,0)">
                    <path d="M0.875,-0.558L0.732,0L0.541,0L0.44,-0.374L0.338,0L0.147,0L0.004,-0.558L0.175,-0.558L0.249,-0.156L0.353,-0.558L0.535,-0.558L0.642,-0.155L0.716,-0.558L0.875,-0.558Z" style="fill:rgb(27,27,48);fill-rule:nonzero;"></path>
                </g>
                <g transform="matrix(233.333,0,0,233.333,204.866,0)">
                    <path d="M0.589,-0.294C0.589,-0.28 0.587,-0.265 0.584,-0.248L0.197,-0.248C0.199,-0.206 0.21,-0.176 0.229,-0.158C0.248,-0.139 0.273,-0.13 0.303,-0.13C0.328,-0.13 0.349,-0.136 0.366,-0.149C0.383,-0.162 0.394,-0.178 0.399,-0.198L0.58,-0.198C0.573,-0.159 0.557,-0.124 0.532,-0.093C0.507,-0.062 0.476,-0.037 0.438,-0.02C0.4,-0.002 0.358,0.007 0.311,0.007C0.256,0.007 0.208,-0.005 0.166,-0.028C0.123,-0.051 0.09,-0.084 0.066,-0.127C0.042,-0.17 0.03,-0.221 0.03,-0.279C0.03,-0.338 0.042,-0.389 0.066,-0.432C0.089,-0.474 0.122,-0.507 0.165,-0.531C0.208,-0.554 0.256,-0.565 0.311,-0.565C0.366,-0.565 0.415,-0.554 0.457,-0.531C0.499,-0.508 0.532,-0.476 0.555,-0.436C0.578,-0.395 0.589,-0.347 0.589,-0.294ZM0.416,-0.32C0.417,-0.357 0.407,-0.384 0.387,-0.403C0.366,-0.421 0.341,-0.43 0.311,-0.43C0.28,-0.43 0.254,-0.421 0.233,-0.402C0.212,-0.383 0.201,-0.356 0.198,-0.32L0.416,-0.32Z" style="fill:rgb(27,27,48);fill-rule:nonzero;"></path>
                </g>
            </g>
            <g transform="matrix(1,0,0,1,495.287,808)">
                <g transform="matrix(233.333,0,0,233.333,0,0)">
                    <path d="M0.782,-0.564C0.851,-0.564 0.905,-0.543 0.944,-0.5C0.983,-0.458 1.003,-0.399 1.003,-0.324L1.003,0L0.833,0L0.833,-0.304C0.833,-0.339 0.824,-0.367 0.805,-0.387C0.786,-0.406 0.76,-0.416 0.727,-0.416C0.693,-0.416 0.666,-0.406 0.647,-0.385C0.627,-0.364 0.617,-0.334 0.617,-0.296L0.617,0L0.446,0L0.446,-0.304C0.446,-0.339 0.437,-0.367 0.418,-0.387C0.399,-0.406 0.374,-0.416 0.341,-0.416C0.307,-0.416 0.28,-0.406 0.26,-0.385C0.24,-0.364 0.23,-0.335 0.23,-0.296L0.23,0L0.059,0L0.059,-0.558L0.23,-0.558L0.23,-0.463C0.245,-0.494 0.267,-0.519 0.298,-0.537C0.328,-0.555 0.363,-0.564 0.404,-0.564C0.447,-0.564 0.484,-0.554 0.517,-0.535C0.55,-0.515 0.574,-0.487 0.591,-0.45C0.61,-0.485 0.637,-0.512 0.671,-0.533C0.704,-0.554 0.741,-0.564 0.782,-0.564Z" style="fill:rgb(248,38,86);fill-rule:nonzero;"></path>
                </g>
                <g transform="matrix(233.333,0,0,233.333,246.866,0)">
                    <path d="M0.271,-0.565C0.314,-0.565 0.35,-0.555 0.381,-0.536C0.412,-0.517 0.434,-0.49 0.449,-0.457L0.449,-0.558L0.619,-0.558L0.619,0L0.449,0L0.449,-0.101C0.434,-0.068 0.412,-0.041 0.381,-0.022C0.35,-0.003 0.314,0.007 0.271,0.007C0.225,0.007 0.184,-0.005 0.148,-0.028C0.111,-0.051 0.083,-0.084 0.062,-0.127C0.041,-0.17 0.03,-0.221 0.03,-0.279C0.03,-0.338 0.041,-0.389 0.062,-0.432C0.083,-0.474 0.111,-0.507 0.148,-0.531C0.184,-0.554 0.225,-0.565 0.271,-0.565ZM0.326,-0.415C0.289,-0.415 0.26,-0.403 0.237,-0.379C0.215,-0.355 0.204,-0.322 0.204,-0.279C0.204,-0.236 0.215,-0.203 0.237,-0.179C0.26,-0.155 0.289,-0.143 0.326,-0.143C0.362,-0.143 0.392,-0.155 0.414,-0.18C0.438,-0.205 0.449,-0.238 0.449,-0.279C0.449,-0.321 0.438,-0.354 0.414,-0.379C0.392,-0.403 0.362,-0.415 0.326,-0.415Z" style="fill:rgb(248,38,86);fill-rule:nonzero;"></path>
                </g>
                <g transform="matrix(233.333,0,0,233.333,405.066,0)">
                    <path d="M0.397,0L0.23,-0.237L0.23,0L0.059,0L0.059,-0.74L0.23,-0.74L0.23,-0.334L0.397,-0.558L0.598,-0.558L0.373,-0.279L0.603,0L0.397,0Z" style="fill:rgb(248,38,86);fill-rule:nonzero;"></path>
                </g>
                <g transform="matrix(233.333,0,0,233.333,546.466,0)">
                    <path d="M0.589,-0.294C0.589,-0.28 0.587,-0.265 0.584,-0.248L0.197,-0.248C0.199,-0.206 0.21,-0.176 0.229,-0.158C0.248,-0.139 0.273,-0.13 0.303,-0.13C0.328,-0.13 0.349,-0.136 0.366,-0.149C0.383,-0.162 0.394,-0.178 0.399,-0.198L0.58,-0.198C0.573,-0.159 0.557,-0.124 0.532,-0.093C0.507,-0.062 0.476,-0.037 0.438,-0.02C0.4,-0.002 0.358,0.007 0.311,0.007C0.256,0.007 0.208,-0.005 0.166,-0.028C0.123,-0.051 0.09,-0.084 0.066,-0.127C0.042,-0.17 0.03,-0.221 0.03,-0.279C0.03,-0.338 0.042,-0.389 0.066,-0.432C0.089,-0.474 0.122,-0.507 0.165,-0.531C0.208,-0.554 0.256,-0.565 0.311,-0.565C0.366,-0.565 0.415,-0.554 0.457,-0.531C0.499,-0.508 0.532,-0.476 0.555,-0.436C0.578,-0.395 0.589,-0.347 0.589,-0.294ZM0.416,-0.32C0.417,-0.357 0.407,-0.384 0.387,-0.403C0.366,-0.421 0.341,-0.43 0.311,-0.43C0.28,-0.43 0.254,-0.421 0.233,-0.402C0.212,-0.383 0.201,-0.356 0.198,-0.32L0.416,-0.32Z" style="fill:rgb(248,38,86);fill-rule:nonzero;"></path>
                </g>
            </g>
            <g transform="matrix(1,0,0,1,1186.19,808)">
                <g transform="matrix(233.333,0,0,233.333,0,0)">
                    <path d="M0.333,-0.634C0.305,-0.634 0.285,-0.628 0.272,-0.616C0.259,-0.604 0.252,-0.585 0.251,-0.558L0.352,-0.558L0.352,-0.414L0.251,-0.414L0.251,0L0.08,0L0.08,-0.414L0.013,-0.414L0.013,-0.558L0.08,-0.558L0.08,-0.564C0.08,-0.633 0.1,-0.687 0.141,-0.725C0.181,-0.762 0.239,-0.781 0.316,-0.781C0.332,-0.781 0.344,-0.781 0.352,-0.78L0.352,-0.633L0.333,-0.634Z" style="fill:rgb(27,27,48);fill-rule:nonzero;"></path>
                </g>
                <g transform="matrix(233.333,0,0,233.333,85.8665,0)">
                    <path d="M0.614,-0.558L0.614,0L0.442,0L0.442,-0.101C0.426,-0.068 0.402,-0.042 0.371,-0.023C0.339,-0.004 0.302,0.006 0.26,0.006C0.196,0.006 0.145,-0.015 0.108,-0.058C0.07,-0.101 0.051,-0.159 0.051,-0.234L0.051,-0.558L0.221,-0.558L0.221,-0.255C0.221,-0.217 0.231,-0.188 0.251,-0.167C0.27,-0.146 0.297,-0.135 0.33,-0.135C0.365,-0.135 0.392,-0.146 0.412,-0.168C0.432,-0.19 0.442,-0.221 0.442,-0.262L0.442,-0.558L0.614,-0.558Z" style="fill:rgb(27,27,48);fill-rule:nonzero;"></path>
                </g>
                <g transform="matrix(233.333,0,0,233.333,242.9,0)">
                    <path d="M0.375,-0.147L0.375,0L0.298,0C0.233,0 0.182,-0.016 0.146,-0.049C0.109,-0.081 0.091,-0.134 0.091,-0.209L0.091,-0.414L0.016,-0.414L0.016,-0.558L0.091,-0.558L0.091,-0.695L0.262,-0.695L0.262,-0.558L0.374,-0.558L0.374,-0.414L0.262,-0.414L0.262,-0.206C0.262,-0.184 0.267,-0.169 0.276,-0.16C0.284,-0.151 0.3,-0.147 0.321,-0.147L0.375,-0.147Z" style="fill:rgb(27,27,48);fill-rule:nonzero;"></path>
                </g>
                <g transform="matrix(233.333,0,0,233.333,339.033,0)">
                    <path d="M0.614,-0.558L0.614,0L0.442,0L0.442,-0.101C0.426,-0.068 0.402,-0.042 0.371,-0.023C0.339,-0.004 0.302,0.006 0.26,0.006C0.196,0.006 0.145,-0.015 0.108,-0.058C0.07,-0.101 0.051,-0.159 0.051,-0.234L0.051,-0.558L0.221,-0.558L0.221,-0.255C0.221,-0.217 0.231,-0.188 0.251,-0.167C0.27,-0.146 0.297,-0.135 0.33,-0.135C0.365,-0.135 0.392,-0.146 0.412,-0.168C0.432,-0.19 0.442,-0.221 0.442,-0.262L0.442,-0.558L0.614,-0.558Z" style="fill:rgb(27,27,48);fill-rule:nonzero;"></path>
                </g>
                <g transform="matrix(233.333,0,0,233.333,496.066,0)">
                    <path d="M0.23,-0.453C0.251,-0.487 0.279,-0.514 0.313,-0.534C0.346,-0.554 0.383,-0.564 0.422,-0.564L0.422,-0.381L0.373,-0.381C0.328,-0.381 0.293,-0.371 0.268,-0.352C0.243,-0.333 0.23,-0.3 0.23,-0.254L0.23,0L0.059,0L0.059,-0.558L0.23,-0.558L0.23,-0.453Z" style="fill:rgb(27,27,48);fill-rule:nonzero;"></path>
                </g>
                <g transform="matrix(233.333,0,0,233.333,597.566,0)">
                    <path d="M0.589,-0.294C0.589,-0.28 0.587,-0.265 0.584,-0.248L0.197,-0.248C0.199,-0.206 0.21,-0.176 0.229,-0.158C0.248,-0.139 0.273,-0.13 0.303,-0.13C0.328,-0.13 0.349,-0.136 0.366,-0.149C0.383,-0.162 0.394,-0.178 0.399,-0.198L0.58,-0.198C0.573,-0.159 0.557,-0.124 0.532,-0.093C0.507,-0.062 0.476,-0.037 0.438,-0.02C0.4,-0.002 0.358,0.007 0.311,0.007C0.256,0.007 0.208,-0.005 0.166,-0.028C0.123,-0.051 0.09,-0.084 0.066,-0.127C0.042,-0.17 0.03,-0.221 0.03,-0.279C0.03,-0.338 0.042,-0.389 0.066,-0.432C0.089,-0.474 0.122,-0.507 0.165,-0.531C0.208,-0.554 0.256,-0.565 0.311,-0.565C0.366,-0.565 0.415,-0.554 0.457,-0.531C0.499,-0.508 0.532,-0.476 0.555,-0.436C0.578,-0.395 0.589,-0.347 0.589,-0.294ZM0.416,-0.32C0.417,-0.357 0.407,-0.384 0.387,-0.403C0.366,-0.421 0.341,-0.43 0.311,-0.43C0.28,-0.43 0.254,-0.421 0.233,-0.402C0.212,-0.383 0.201,-0.356 0.198,-0.32L0.416,-0.32Z" style="fill:rgb(27,27,48);fill-rule:nonzero;"></path>
                </g>
            </g>
            <g transform="matrix(1,0,0,1,1928.19,808)">
                <g transform="matrix(233.333,0,0,233.333,0,0)">
                    <rect x="0.029" y="-0.171" width="0.177" height="0.171" style="fill:rgb(248,38,86);fill-rule:nonzero;"></rect>
                </g>
            </g>
        </g>
    </g>
</svg>